<svg width="400" height="400" xmlns="http://www.w3.org/2000/svg">
  <!-- Vaso -->
  <path d="M 150 100 L 170 350 L 230 350 L 250 100 Z" fill="#e6f3ff" stroke="#4a90e2" stroke-width="3"/>
  
  <!-- Bebida cola -->
  <path d="M 155 120 L 168 340 L 232 340 L 245 120 Z" fill="#2c1810"/>
  
  <!-- Burbujas -->
  <circle cx="180" cy="150" r="3" fill="#fff" opacity="0.7"/>
  <circle cx="200" cy="180" r="2" fill="#fff" opacity="0.6"/>
  <circle cx="220" cy="160" r="2.5" fill="#fff" opacity="0.8"/>
  <circle cx="190" cy="200" r="1.5" fill="#fff" opacity="0.5"/>
  <circle cx="210" cy="220" r="2" fill="#fff" opacity="0.7"/>
  <circle cx="175" cy="240" r="1.8" fill="#fff" opacity="0.6"/>
  <circle cx="225" cy="250" r="2.2" fill="#fff" opacity="0.8"/>
  <circle cx="195" cy="280" r="1.5" fill="#fff" opacity="0.5"/>
  <circle cx="215" cy="300" r="2" fill="#fff" opacity="0.7"/>
  
  <!-- Espuma -->
  <ellipse cx="200" cy="120" rx="45" ry="8" fill="#fff" opacity="0.9"/>
  
  <!-- Hielo -->
  <rect x="170" y="140" width="15" height="15" fill="#e6f7ff" opacity="0.8" transform="rotate(25 177 147)"/>
  <rect x="210" y="170" width="12" height="12" fill="#e6f7ff" opacity="0.7" transform="rotate(-20 216 176)"/>
  <rect x="185" y="190" width="14" height="14" fill="#e6f7ff" opacity="0.8" transform="rotate(35 192 197)"/>
  
  <!-- Pajita -->
  <rect x="195" y="80" width="6" height="100" fill="#ff6b6b" rx="3"/>
  <rect x="195" y="80" width="6" height="20" fill="#ff4757" rx="3"/>
  
  <text x="200" y="380" text-anchor="middle" font-family="Arial, sans-serif" font-size="16" fill="#6c757d">Coca Cola</text>
</svg>