<svg width="400" height="400" xmlns="http://www.w3.org/2000/svg">
  <!-- Plato -->
  <ellipse cx="200" cy="220" rx="160" ry="140" fill="#f8f9fa" stroke="#dee2e6" stroke-width="3"/>
  
  <!-- Lechuga base -->
  <ellipse cx="180" cy="200" rx="40" ry="25" fill="#90ee90" transform="rotate(15 180 200)"/>
  <ellipse cx="220" cy="190" rx="35" ry="20" fill="#90ee90" transform="rotate(-20 220 190)"/>
  <ellipse cx="200" cy="220" rx="45" ry="30" fill="#90ee90" transform="rotate(5 200 220)"/>
  <ellipse cx="160" cy="210" rx="30" ry="18" fill="#90ee90" transform="rotate(40 160 210)"/>
  <ellipse cx="240" cy="210" rx="38" ry="22" fill="#90ee90" transform="rotate(-35 240 210)"/>
  
  <!-- Crutones -->
  <rect x="170" y="180" width="12" height="12" fill="#daa520" transform="rotate(25 176 186)"/>
  <rect x="210" y="200" width="10" height="10" fill="#daa520" transform="rotate(-15 215 205)"/>
  <rect x="190" y="230" width="11" height="11" fill="#daa520" transform="rotate(35 195 235)"/>
  <rect x="230" y="190" width="9" height="9" fill="#daa520" transform="rotate(-40 234 194)"/>
  
  <!-- Queso parmesano -->
  <ellipse cx="185" cy="195" rx="8" ry="4" fill="#fff8dc" transform="rotate(20 185 195)"/>
  <ellipse cx="215" cy="205" rx="6" ry="3" fill="#fff8dc" transform="rotate(-30 215 205)"/>
  <ellipse cx="200" cy="225" rx="7" ry="4" fill="#fff8dc" transform="rotate(10 200 225)"/>
  
  <!-- Tomates cherry -->
  <circle cx="175" cy="205" r="6" fill="#ff6347"/>
  <circle cx="225" cy="200" r="5" fill="#ff6347"/>
  
  <text x="200" y="380" text-anchor="middle" font-family="Arial, sans-serif" font-size="16" fill="#6c757d">Ensalada César</text>
</svg>